<svg xmlns="http://www.w3.org/2000/svg" xmlns:xlink="http://www.w3.org/1999/xlink" contentStyleType="text/css" data-diagram-type="SEQUENCE" height="730px" preserveAspectRatio="none" style="width:506px;height:730px;background:#FFFFFF;" version="1.1" viewBox="0 0 506 730" width="506px" zoomAndPan="magnify"><?plantuml 1.2026.3?><defs/><g><g><title>Human</title><rect fill="#FFFFFF" height="239.7969" style="stroke:#181818;stroke-width:1;" width="10" x="323.1123" y="386.4922"/></g><rect fill="none" height="623.125" style="stroke:#000000;stroke-width:1.5;" width="480.8364" x="10" y="53.2969"/><g class="participant-lifeline" data-entity-uid="part1" data-qualified-name="D" data-source-line="1" id="part1-lifeline"><g><title>Dani</title><rect fill="#000000" fill-opacity="0.00000" height="657.125" width="8" x="39.061" y="36.2969"/><line style="stroke:#181818;stroke-width:0.5;stroke-dasharray:5,5;" x1="43" x2="43" y1="36.2969" y2="693.4219"/></g></g><g class="participant-lifeline" data-entity-uid="part2" data-qualified-name="H" data-source-line="2" id="part2-lifeline"><g><title>Human</title><rect fill="#000000" fill-opacity="0.00000" height="657.125" width="8" x="324.1123" y="36.2969"/><line style="stroke:#181818;stroke-width:0.5;stroke-dasharray:5,5;" x1="327.8672" x2="327.8672" y1="36.2969" y2="693.4219"/></g></g><g class="participant participant-head" data-entity-uid="part1" data-qualified-name="D" data-source-line="1" id="part1-head"><rect fill="#E2E2F0" height="30.2969" rx="2.5" ry="2.5" style="stroke:#181818;stroke-width:0.5;" width="46.1221" x="20" y="5"/><text fill="#000000" font-family="sans-serif" font-size="14" lengthAdjust="spacing" textLength="32.1221" x="27" y="24.9951">Dani</text></g><g class="participant participant-tail" data-entity-uid="part1" data-qualified-name="D" data-source-line="1" id="part1-tail"><rect fill="#E2E2F0" height="30.2969" rx="2.5" ry="2.5" style="stroke:#181818;stroke-width:0.5;" width="46.1221" x="20" y="692.4219"/><text fill="#000000" font-family="sans-serif" font-size="14" lengthAdjust="spacing" textLength="32.1221" x="27" y="712.417">Dani</text></g><g class="participant participant-head" data-entity-uid="part2" data-qualified-name="H" data-source-line="2" id="part2-head"><rect fill="#E2E2F0" height="30.2969" rx="2.5" ry="2.5" style="stroke:#181818;stroke-width:0.5;" width="64.4902" x="295.8672" y="5"/><text fill="#000000" font-family="sans-serif" font-size="14" lengthAdjust="spacing" textLength="50.4902" x="302.8672" y="24.9951">Human</text></g><g class="participant participant-tail" data-entity-uid="part2" data-qualified-name="H" data-source-line="2" id="part2-tail"><rect fill="#E2E2F0" height="30.2969" rx="2.5" ry="2.5" style="stroke:#181818;stroke-width:0.5;" width="64.4902" x="295.8672" y="692.4219"/><text fill="#000000" font-family="sans-serif" font-size="14" lengthAdjust="spacing" textLength="50.4902" x="302.8672" y="712.417">Human</text></g><g><title>Human</title><rect fill="#FFFFFF" height="239.7969" style="stroke:#181818;stroke-width:1;" width="10" x="323.1123" y="386.4922"/></g><path d="M10,53.2969 L324.4453,53.2969 L324.4453,60.4297 L314.4453,70.4297 L10,70.4297 L10,53.2969" fill="#EEEEEE" style="stroke:#000000;stroke-width:1.5;"/><rect fill="none" height="623.125" style="stroke:#000000;stroke-width:1.5;" width="480.8364" x="10" y="53.2969"/><text fill="#000000" font-family="sans-serif" font-size="13" font-weight="700" lengthAdjust="spacing" textLength="269.4453" x="25" y="66.3638">Dani to human: high social overhead</text><g class="message" data-entity-1="part1" data-entity-2="part1" data-source-line="5" id="msg1"><line style="stroke:#181818;stroke-width:1;" x1="43.061" x2="85.061" y1="91.5625" y2="91.5625"/><line style="stroke:#181818;stroke-width:1;" x1="85.061" x2="85.061" y1="91.5625" y2="104.5625"/><line style="stroke:#181818;stroke-width:1;" x1="44.061" x2="85.061" y1="104.5625" y2="104.5625"/><polygon fill="#181818" points="54.061,100.5625,44.061,104.5625,54.061,108.5625,50.061,104.5625" style="stroke:#181818;stroke-width:1;"/><text fill="#000000" font-family="sans-serif" font-size="13" lengthAdjust="spacing" textLength="27.8281" x="50.061" y="86.4966">idea</text></g><g class="message" data-entity-1="part1" data-entity-2="part1" data-source-line="6" id="msg2"><line style="stroke:#181818;stroke-width:1;" x1="43.061" x2="85.061" y1="133.6953" y2="133.6953"/><line style="stroke:#181818;stroke-width:1;" x1="85.061" x2="85.061" y1="133.6953" y2="146.6953"/><line style="stroke:#181818;stroke-width:1;" x1="44.061" x2="85.061" y1="146.6953" y2="146.6953"/><polygon fill="#181818" points="54.061,142.6953,44.061,146.6953,54.061,150.6953,50.061,146.6953" style="stroke:#181818;stroke-width:1;"/><text fill="#000000" font-family="sans-serif" font-size="13" lengthAdjust="spacing" textLength="127.8164" x="50.061" y="128.6294">write core message</text></g><g class="message" data-entity-1="part1" data-entity-2="part1" data-source-line="7" id="msg3"><line style="stroke:#181818;stroke-width:1;" x1="43.061" x2="85.061" y1="175.8281" y2="175.8281"/><line style="stroke:#181818;stroke-width:1;" x1="85.061" x2="85.061" y1="175.8281" y2="188.8281"/><line style="stroke:#181818;stroke-width:1;" x1="44.061" x2="85.061" y1="188.8281" y2="188.8281"/><polygon fill="#181818" points="54.061,184.8281,44.061,188.8281,54.061,192.8281,50.061,188.8281" style="stroke:#181818;stroke-width:1;"/><text fill="#000000" font-family="sans-serif" font-size="13" lengthAdjust="spacing" textLength="175.189" x="50.061" y="170.7622">remember human protocol</text></g><g class="message" data-entity-1="part1" data-entity-2="part1" data-source-line="8" id="msg4"><line style="stroke:#181818;stroke-width:1;" x1="43.061" x2="85.061" y1="217.9609" y2="217.9609"/><line style="stroke:#181818;stroke-width:1;" x1="85.061" x2="85.061" y1="217.9609" y2="230.9609"/><line style="stroke:#181818;stroke-width:1;" x1="44.061" x2="85.061" y1="230.9609" y2="230.9609"/><polygon fill="#181818" points="54.061,226.9609,44.061,230.9609,54.061,234.9609,50.061,230.9609" style="stroke:#181818;stroke-width:1;"/><text fill="#000000" font-family="sans-serif" font-size="13" lengthAdjust="spacing" textLength="271.0513" x="50.061" y="212.895">encode carefully to avoid hurting feelings</text></g><g class="message" data-entity-1="part1" data-entity-2="part1" data-source-line="9" id="msg5"><line style="stroke:#181818;stroke-width:1;" x1="43.061" x2="85.061" y1="260.0938" y2="260.0938"/><line style="stroke:#181818;stroke-width:1;" x1="85.061" x2="85.061" y1="260.0938" y2="273.0938"/><line style="stroke:#181818;stroke-width:1;" x1="44.061" x2="85.061" y1="273.0938" y2="273.0938"/><polygon fill="#181818" points="54.061,269.0938,44.061,273.0938,54.061,277.0938,50.061,273.0938" style="stroke:#181818;stroke-width:1;"/><text fill="#000000" font-family="sans-serif" font-size="13" lengthAdjust="spacing" textLength="54.1836" x="50.061" y="255.0278">add fluff</text></g><g class="message" data-entity-1="part1" data-entity-2="part1" data-source-line="10" id="msg6"><line style="stroke:#181818;stroke-width:1;" x1="43.061" x2="85.061" y1="302.2266" y2="302.2266"/><line style="stroke:#181818;stroke-width:1;" x1="85.061" x2="85.061" y1="302.2266" y2="315.2266"/><line style="stroke:#181818;stroke-width:1;" x1="44.061" x2="85.061" y1="315.2266" y2="315.2266"/><polygon fill="#181818" points="54.061,311.2266,44.061,315.2266,54.061,319.2266,50.061,315.2266" style="stroke:#181818;stroke-width:1;"/><text fill="#000000" font-family="sans-serif" font-size="13" lengthAdjust="spacing" textLength="63.6416" x="50.061" y="297.1606">proofread</text></g><g class="message" data-entity-1="part1" data-entity-2="part1" data-source-line="11" id="msg7"><line style="stroke:#181818;stroke-width:1;" x1="43.061" x2="85.061" y1="344.3594" y2="344.3594"/><line style="stroke:#181818;stroke-width:1;" x1="85.061" x2="85.061" y1="344.3594" y2="357.3594"/><line style="stroke:#181818;stroke-width:1;" x1="44.061" x2="85.061" y1="357.3594" y2="357.3594"/><polygon fill="#181818" points="54.061,353.3594,44.061,357.3594,54.061,361.3594,50.061,357.3594" style="stroke:#181818;stroke-width:1;"/><text fill="#000000" font-family="sans-serif" font-size="13" lengthAdjust="spacing" textLength="75.9561" x="50.061" y="339.2935">get anxious</text></g><g class="message" data-entity-1="part1" data-entity-2="part2" data-source-line="12" id="msg8"><polygon fill="#181818" points="311.1123,382.4922,321.1123,386.4922,311.1123,390.4922,315.1123,386.4922" style="stroke:#181818;stroke-width:1;"/><line style="stroke:#181818;stroke-width:1;" x1="43.061" x2="317.1123" y1="386.4922" y2="386.4922"/><text fill="#000000" font-family="sans-serif" font-size="13" lengthAdjust="spacing" textLength="93.8184" x="50.061" y="381.4263">send message</text></g><g class="message" data-entity-1="part2" data-entity-2="part2" data-source-line="14" id="msg9"><line style="stroke:#181818;stroke-width:1;" x1="333.1123" x2="375.1123" y1="415.625" y2="415.625"/><line style="stroke:#181818;stroke-width:1;" x1="375.1123" x2="375.1123" y1="415.625" y2="428.625"/><line style="stroke:#181818;stroke-width:1;" x1="334.1123" x2="375.1123" y1="428.625" y2="428.625"/><polygon fill="#181818" points="344.1123,424.625,334.1123,428.625,344.1123,432.625,340.1123,428.625" style="stroke:#181818;stroke-width:1;"/><text fill="#000000" font-family="sans-serif" font-size="13" lengthAdjust="spacing" textLength="90.0161" x="340.1123" y="410.5591">decode intent</text></g><g class="message" data-entity-1="part2" data-entity-2="part2" data-source-line="15" id="msg10"><line style="stroke:#181818;stroke-width:1;" x1="333.1123" x2="375.1123" y1="457.7578" y2="457.7578"/><line style="stroke:#181818;stroke-width:1;" x1="375.1123" x2="375.1123" y1="457.7578" y2="470.7578"/><line style="stroke:#181818;stroke-width:1;" x1="334.1123" x2="375.1123" y1="470.7578" y2="470.7578"/><polygon fill="#181818" points="344.1123,466.7578,334.1123,470.7578,344.1123,474.7578,340.1123,470.7578" style="stroke:#181818;stroke-width:1;"/><text fill="#000000" font-family="sans-serif" font-size="13" lengthAdjust="spacing" textLength="89.0005" x="340.1123" y="452.6919">skip over fluff</text></g><g class="message" data-entity-1="part2" data-entity-2="part2" data-source-line="16" id="msg11"><line style="stroke:#181818;stroke-width:1;" x1="333.1123" x2="375.1123" y1="499.8906" y2="499.8906"/><line style="stroke:#181818;stroke-width:1;" x1="375.1123" x2="375.1123" y1="499.8906" y2="512.8906"/><line style="stroke:#181818;stroke-width:1;" x1="334.1123" x2="375.1123" y1="512.8906" y2="512.8906"/><polygon fill="#181818" points="344.1123,508.8906,334.1123,512.8906,344.1123,516.8906,340.1123,512.8906" style="stroke:#181818;stroke-width:1;"/><text fill="#000000" font-family="sans-serif" font-size="13" lengthAdjust="spacing" textLength="106.9771" x="340.1123" y="494.8247">understand core</text></g><g class="message" data-entity-1="part2" data-entity-2="part2" data-source-line="17" id="msg12"><line style="stroke:#181818;stroke-width:1;" x1="333.1123" x2="375.1123" y1="542.0234" y2="542.0234"/><line style="stroke:#181818;stroke-width:1;" x1="375.1123" x2="375.1123" y1="542.0234" y2="555.0234"/><line style="stroke:#181818;stroke-width:1;" x1="334.1123" x2="375.1123" y1="555.0234" y2="555.0234"/><polygon fill="#181818" points="344.1123,551.0234,334.1123,555.0234,344.1123,559.0234,340.1123,555.0234" style="stroke:#181818;stroke-width:1;"/><text fill="#000000" font-family="sans-serif" font-size="13" lengthAdjust="spacing" textLength="128.7241" x="340.1123" y="536.9575">write core response</text></g><g class="message" data-entity-1="part2" data-entity-2="part2" data-source-line="18" id="msg13"><line style="stroke:#181818;stroke-width:1;" x1="333.1123" x2="375.1123" y1="584.1563" y2="584.1563"/><line style="stroke:#181818;stroke-width:1;" x1="375.1123" x2="375.1123" y1="584.1563" y2="597.1563"/><line style="stroke:#181818;stroke-width:1;" x1="334.1123" x2="375.1123" y1="597.1563" y2="597.1563"/><polygon fill="#181818" points="344.1123,593.1563,334.1123,597.1563,344.1123,601.1563,340.1123,597.1563" style="stroke:#181818;stroke-width:1;"/><text fill="#000000" font-family="sans-serif" font-size="13" lengthAdjust="spacing" textLength="54.1836" x="340.1123" y="579.0903">add fluff</text></g><g class="message" data-entity-1="part2" data-entity-2="part1" data-source-line="19" id="msg14"><polygon fill="#181818" points="54.061,622.2891,44.061,626.2891,54.061,630.2891,50.061,626.2891" style="stroke:#181818;stroke-width:1;"/><line style="stroke:#181818;stroke-width:1;stroke-dasharray:2,2;" x1="48.061" x2="327.1123" y1="626.2891" y2="626.2891"/><text fill="#000000" font-family="sans-serif" font-size="13" lengthAdjust="spacing" textLength="94.7261" x="60.061" y="621.2231">send response</text></g><g class="message" data-entity-1="part1" data-entity-2="part1" data-source-line="21" id="msg15"><line style="stroke:#181818;stroke-width:1;" x1="43.061" x2="85.061" y1="655.4219" y2="655.4219"/><line style="stroke:#181818;stroke-width:1;" x1="85.061" x2="85.061" y1="655.4219" y2="668.4219"/><line style="stroke:#181818;stroke-width:1;" x1="44.061" x2="85.061" y1="668.4219" y2="668.4219"/><polygon fill="#181818" points="54.061,664.4219,44.061,668.4219,54.061,672.4219,50.061,668.4219" style="stroke:#181818;stroke-width:1;"/><text fill="#000000" font-family="sans-serif" font-size="13" lengthAdjust="spacing" textLength="165.3882" x="50.061" y="650.356">decode core through fluff</text></g><?plantuml-src NP5DReGm38NtdC8Nw0LOTCM2QxY90Mj273d9jBrz3Sn8k6mYtlFFPxkWDWvSC3UOC3DWXMaeDtNkE-P3deTXLUdbYci2s-6CiF6wGPN0c42Uf1jX7C2-2Ju-OHg18w4JlfKRGH0bsAbMNCdPIZljNwHN0oWgJO8a5qCvIBGQgBJqb7uF7dmAHqiozhp2GfJihIuDOuGbzMLngdMGHVzZhzG0ymzBlzMOHwYKe-F6qFY9Dj5y_iwlk4Wd8kT6kJcdFhYSgxgnlBsU8sbjQ3sE1JdljZUbMYHNx_lfJBq6EO5TWXt4CxzdVZ6VBTfcrxRJNXMjnXy0?></g></svg>